<svg width="32" height="32" xmlns="http://www.w3.org/2000/svg">

 <g>
  <title>background</title>
  <rect fill="none" id="canvas_background" height="402" width="582" y="-1" x="-1"/>
 </g>
 <g>
  <title>Layer 1</title>
  <path id="svg_1" fill="#CA2028" d="m15.996,0.007c-8.834,0 -15.996,7.161 -15.996,15.997c0,6.551001 3.938,12.177 9.575,14.65c-0.045,-1.118 -0.007999,-2.459 0.278,-3.671999c0.308001,-1.301001 2.058001,-8.719 2.058001,-8.719s-0.512,-1.021 -0.512,-2.529c0,-2.369 1.375999,-4.14 3.087,-4.14c1.454,0 2.157,1.091001 2.157,2.400001c0,1.462 -0.934,3.649999 -1.412,5.676c-0.401,1.695999 0.852,3.08 2.522,3.08c3.031,0 5.072001,-3.891001 5.072001,-8.504c0,-3.505 -2.361,-6.128 -6.655001,-6.128c-4.852,0 -7.874001,3.617 -7.874001,7.659c0,1.393999 0.411,2.376999 1.054001,3.138c0.297,0.349998 0.337999,0.488998 0.229,0.890999c-0.074,0.296 -0.25,1.003 -0.324,1.283001c-0.107,0.407 -0.434,0.550999 -0.801,0.4c-2.235001,-0.91 -3.275001,-3.358 -3.275001,-6.110001c0,-4.542999 3.831,-9.993 11.433,-9.993c6.106001,0 10.128,4.42 10.128,9.164c0,6.275001 -3.490999,10.963 -8.632999,10.963c-1.728001,0 -3.353001,-0.934 -3.907001,-1.992001c0,0 -0.929999,3.686001 -1.125,4.396c-0.34,1.231001 -1.004,2.466 -1.61,3.427c1.436,0.424999 2.955999,0.656 4.531,0.656c8.834,0 15.994999,-7.16 15.994999,-15.996s-7.160999,-15.997 -15.994999,-15.997z"/>
 </g>
</svg>