<?xml version="1.0" standalone="no"?>
<!DOCTYPE svg PUBLIC "-//W3C//DTD SVG 20010904//EN"
 "http://www.w3.org/TR/2001/REC-SVG-20010904/DTD/svg10.dtd">
<svg version="1.0" xmlns="http://www.w3.org/2000/svg"
 width="512.000000pt" height="512.000000pt" viewBox="0 0 512.000000 512.000000"
 preserveAspectRatio="xMidYMid meet">
<metadata>
Created by potrace 1.15, written by Peter Selinger 2001-2017
</metadata>
<g transform="translate(0.000000,512.000000) scale(0.100000,-0.100000)"
fill="#000000" stroke="none">
<path d="M2240 5105 c-456 -57 -891 -237 -1260 -523 -117 -91 -316 -287 -413
-407 -158 -196 -307 -451 -397 -678 -74 -189 -138 -453 -160 -659 -13 -125
-13 -431 0 -556 63 -592 332 -1141 766 -1563 383 -371 833 -598 1368 -690 173
-30 552 -37 726 -15 483 64 896 234 1270 524 117 91 316 287 413 407 255 315
437 696 516 1080 70 342 70 728 0 1070 -134 649 -539 1239 -1104 1611 -329
216 -695 350 -1085 399 -151 18 -490 18 -640 0z m629 -320 c491 -71 925 -288
1276 -640 295 -295 487 -631 590 -1030 51 -197 68 -341 68 -555 0 -214 -17
-358 -68 -555 -103 -400 -295 -735 -590 -1030 -295 -295 -630 -487 -1030 -590
-197 -51 -341 -68 -555 -68 -214 0 -358 17 -555 68 -399 103 -735 295 -1030
590 -195 194 -323 375 -441 620 -150 313 -218 611 -218 965 0 357 71 664 228
985 228 464 584 816 1052 1042 251 121 497 186 819 217 76 8 350 -4 454 -19z"/>
<path d="M2499 3890 c-345 -35 -607 -194 -779 -474 -97 -157 -148 -362 -135
-545 16 -234 97 -401 237 -492 97 -62 123 -52 152 63 22 93 21 125 -10 165
-72 95 -102 227 -85 372 39 317 231 547 520 622 95 25 268 27 356 4 161 -42
290 -143 355 -279 49 -104 60 -159 60 -310 0 -273 -79 -519 -211 -661 -70 -75
-133 -108 -216 -113 -74 -5 -123 10 -169 51 -97 84 -100 159 -21 432 83 287
92 389 42 484 -49 95 -192 121 -294 53 -114 -77 -176 -258 -151 -442 6 -44 17
-98 25 -120 13 -38 10 -58 -86 -487 -101 -447 -101 -448 -106 -614 -5 -161 8
-354 26 -372 4 -4 14 -5 22 -2 24 9 127 172 191 302 54 109 67 149 120 366
l61 243 45 -48 c130 -139 366 -164 587 -63 282 129 458 433 496 858 33 362
-104 671 -381 856 -181 121 -415 176 -651 151z"/>
</g>
</svg>
