<?xml version="1.0" standalone="no"?>
<!DOCTYPE svg PUBLIC "-//W3C//DTD SVG 20010904//EN"
 "http://www.w3.org/TR/2001/REC-SVG-20010904/DTD/svg10.dtd">
<svg version="1.0" xmlns="http://www.w3.org/2000/svg"
 width="32.000000pt" height="32.000000pt" viewBox="0 0 32.000000 32.000000"
 preserveAspectRatio="xMidYMid meet">
<metadata>
Created by potrace 1.15, written by Peter Selinger 2001-2017
</metadata>
<g transform="translate(0.000000,32.000000) scale(0.100000,-0.100000)"
fill="#000000" stroke="none">
<path d="M93 270 c-38 -23 -63 -67 -63 -112 0 -38 30 -92 59 -107 18 -10 20
-6 27 42 5 28 7 62 6 73 -3 27 19 46 38 34 12 -7 12 -13 1 -33 -14 -27 -8 -47
14 -47 17 0 35 31 35 59 0 11 -11 28 -24 36 -45 30 -98 -13 -81 -66 5 -15 3
-20 -6 -17 -18 6 -24 61 -10 87 6 11 26 25 45 31 43 14 92 -7 106 -46 20 -50
-30 -120 -76 -108 -15 4 -23 -2 -32 -21 -18 -39 -15 -45 23 -45 104 0 168 110
115 197 -37 61 -116 81 -177 43z"/>
</g>
</svg>
